<svg width="1024" height="1024" viewBox="0 0 1024 1024" fill="none" xmlns="http://www.w3.org/2000/svg">
<path d="M88.0869 52.9045C63.3575 80.1702 53.2121 194.306 129.937 388.97C102.882 455.761 85.2969 620.792 129.937 756.74C180.663 820.783 277.679 956.478 528.777 972.964C615.647 971.273 850.893 939.991 914.935 756.74C914.935 756.74 980.246 588.708 925.08 389.604C925.08 389.604 988.489 141.677 925.08 52.9047C843.283 39.5888 687.298 177.185 673.349 208.256C626.849 190.713 503.287 166.152 381.035 208.256C311.285 127.093 159.739 45.2955 88.0869 52.9045Z" fill="#262F40"/>
<path d="M105.207 80.8044C101.825 144.424 106.729 286.629 153.398 346.487C187.85 298.085 181.932 276.737 338.551 218.401C292.474 172.536 181.298 80.8044 105.207 80.8044Z" fill="#D1D5DB"/>
<path d="M917.472 75.0977C940.933 177.186 939.918 251.12 907.96 346.487C907.96 346.487 864.843 234.253 703.151 217.133C737.603 169.365 847.722 75.0977 917.472 75.0977Z" fill="#D1D5DB"/>
<circle cx="365.817" cy="561.442" r="63.4086" fill="#F9FAFB"/>
<circle cx="685.396" cy="561.442" r="63.4086" fill="#F9FAFB"/>
<path d="M537.166 615.973C539.703 626.33 539.322 648.819 517.51 655.921C495.697 663.022 521.526 667.757 537.166 669.236" stroke="white" stroke-width="2.53635"/>
<path d="M289.092 766.886H757.048C696.81 943.162 362.646 967.257 289.092 766.886Z" fill="#F56565" stroke="black" stroke-width="1.26817"/>
<path d="M303.042 795.42L329.674 766.886H289.092L303.042 795.42Z" fill="#E5E7EB"/>
<path d="M329.674 766.886L359.476 803.029L388.644 766.886H329.674Z" fill="#E5E7EB"/>
<path d="M388.644 766.886L416.544 804.931L444.443 766.886H388.644Z" fill="#E5E7EB"/>
<path d="M444.443 766.886L474.879 803.663L496.438 766.886H444.443Z" fill="#E5E7EB"/>
<path d="M496.438 766.886L525.606 803.663L552.238 766.886H496.438Z" fill="#E5E7EB"/>
<path d="M552.238 766.886L580.772 803.663L607.404 766.886H552.238Z" fill="#E5E7EB"/>
<path d="M607.404 766.886L632.133 803.663L658.13 766.886H607.404Z" fill="#E5E7EB"/>
<path d="M658.13 766.886L681.592 803.663L708.223 766.886H658.13Z" fill="#E5E7EB"/>
<path d="M708.223 766.886L729.782 803.663L751.341 766.886H708.223Z" fill="#E5E7EB"/>
<path d="M751.341 766.886L753.243 777.665C753.243 777.665 755.949 771.095 757.682 766.886C755.206 766.886 751.341 766.886 751.341 766.886Z" fill="#E5E7EB"/>
<circle cx="365.817" cy="561.442" r="38.0452" fill="#374151"/>
<circle cx="685.396" cy="561.442" r="38.0452" fill="#374151"/>
</svg>
